<?xml version="1.0" encoding="UTF-8" standalone="no"?>
<!-- Created with Inkscape (http://www.inkscape.org/) -->

<svg
   xmlns:dc="http://purl.org/dc/elements/1.1/"
   xmlns:cc="http://creativecommons.org/ns#"
   xmlns:rdf="http://www.w3.org/1999/02/22-rdf-syntax-ns#"
   xmlns:svg="http://www.w3.org/2000/svg"
   xmlns="http://www.w3.org/2000/svg"
   version="1.1"
   width="120"
   height="34.630791"
   id="svg2">
  <defs
     id="defs4" />
  <metadata
     id="metadata7">
    <rdf:RDF>
      <cc:Work
         rdf:about="">
        <dc:format>image/svg+xml</dc:format>
        <dc:type
           rdf:resource="http://purl.org/dc/dcmitype/StillImage" />
        <dc:title></dc:title>
      </cc:Work>
    </rdf:RDF>
  </metadata>
  <g
     transform="translate(-90.136719,-882.17048)"
     id="layer1">
    <g
       transform="matrix(0.27771,0,0,0.27771,65.104851,662.19639)"
       id="g3036">
      <path
         d="m 53.4375,6.6875 c -7.92193,10e-5 -15.16801,1.29161 -21.71875,3.90625 -6.55081,2.61485 -12.16994,6.29502 -16.875,11 C 10.13866,26.29891 6.466297,31.90242 3.875,38.40625 1.283685,44.91022 -5e-6,52.05279 0,59.875 c -5e-6,7.72856 1.172357,14.87748 3.5,21.40625 2.327626,6.52883 5.663067,12.14016 10.03125,16.84375 4.36814,4.70363 9.64401,8.36035 15.8125,11 6.16841,2.63965 13.11812,3.96875 20.84375,3.96875 8.64252,0 16.05168,-1.37305 22.21875,-4.15625 4.625182,-2.0874 8.686065,-4.87866 12.21875,-8.34375 -3.364916,-3.848925 -6.179964,-8.161225 -8.4375,-12.9375 -0.105766,0.04111 -0.210297,0.07404 -0.3125,0.125 -0.52889,0.2637 -1.01961,0.62893 -1.5,1.0625 -1.58211,1.4385 -3.17293,2.64065 -4.78125,3.625 -1.60847,0.98439 -3.32477,1.78224 -5.125,2.40625 -1.80036,0.62404 -3.77057,1.08645 -5.90625,1.375 -2.1358,0.28859 -4.51666,0.43751 -7.15625,0.4375 -4.4151,1e-5 -8.53423,-0.84325 -12.375,-2.5 C 35.19039,92.53078 31.83151,90.15139 29,87.03125 26.16843,83.91117 23.93796,80.06009 22.28125,75.5 20.62449,70.93998 19.81248,65.73149 19.8125,59.875 c -2e-5,-5.66303 0.81199,-10.74456 2.46875,-15.28125 1.65671,-4.53654 3.95456,-8.39543 6.90625,-11.5625 2.95162,-3.16691 6.48921,-5.60881 10.59375,-7.3125 4.10444,-1.70353 8.60443,-2.56241 13.5,-2.5625 4.17474,9e-5 7.63079,0.44979 10.34375,1.3125 2.71282,0.86288 4.94329,1.80478 6.71875,2.8125 1.77531,1.0079 3.25334,1.94832 4.40625,2.8125 0.661578,0.496051 1.292761,0.819913 1.9375,1.03125 2.457622,-4.955867 5.535306,-9.383904 9.21875,-13.3125 C 82.355816,14.832196 78.2831,12.338829 73.6875,10.375 67.90423,7.90392 61.16595,6.6876 53.4375,6.6875 z"
         transform="translate(90.136719,785.41676)"
         id="path2987"
         style="font-size:144px;font-style:normal;font-variant:normal;font-weight:bold;font-stretch:normal;text-align:center;letter-spacing:-20px;text-anchor:middle;fill:#000000;fill-opacity:1;fill-rule:evenodd;stroke:none;font-family:Lato;-inkscape-font-specification:Lato Bold" />
      <path
         d="m 265.25,7.84375 0,15.3125 c 2.81008,3.814145 5.14677,8.038137 7,12.6875 2.90885,7.29844 4.37488,15.3061 4.375,24.03125 -1.2e-4,8.72527 -1.46615,16.76248 -4.375,24.0625 -1.85323,4.650503 -4.18992,8.862112 -7,12.6875 l 0,15.3125 65.6875,0 0,-15.09375 c -0.10437,-0.125986 -0.20932,-0.248014 -0.3125,-0.375 l -45.84375,0 0,-29.4375 33.78125,0 c -0.29106,-2.541328 -0.4375,-5.14206 -0.4375,-7.8125 0,-2.421221 0.13573,-4.778648 0.375,-7.09375 l -33.71875,0 0,-28.875 44.84375,0 c 0.42711,-0.560671 0.86327,-1.114113 1.3125,-1.65625 l 0,-13.75 -65.6875,0 z"
         transform="translate(90.136719,785.41676)"
         id="path2993"
         style="font-size:144px;font-style:normal;font-variant:normal;font-weight:bold;font-stretch:normal;text-align:center;letter-spacing:-20px;text-anchor:middle;fill:#000000;fill-opacity:1;fill-rule:evenodd;stroke:none;font-family:Lato;-inkscape-font-specification:Lato Bold" />
      <path
         d="m 177.53125,7.84375 0,15.03125 c 2.89213,3.952581 5.30204,8.337028 7.1875,13.15625 2.86391,7.32094 4.28112,15.25336 4.28125,23.84375 -1.3e-4,8.59051 -1.41734,16.55419 -4.28125,23.875 -1.8846,4.817115 -4.29713,9.192241 -7.1875,13.15625 l 0,15.03125 39.75,0 c 7.87202,0 15.05072,-1.26806 21.53125,-3.8125 6.48039,-2.54443 12.01798,-6.11181 16.625,-10.71875 4.60684,-4.60691 8.20547,-10.11472 10.75,-16.5 2.54433,-6.38522 3.81239,-13.39937 3.8125,-21.03125 -1.1e-4,-7.63178 -1.26817,-14.61615 -3.8125,-21 -2.54453,-6.38371 -6.14316,-11.88517 -10.75,-16.46875 -4.60702,-4.5834 -10.14461,-8.15078 -16.625,-10.71875 -6.48053,-2.56777 -13.65923,-3.84364 -21.53125,-3.84375 l -39.75,0 z M 197.0625,23.25 l 20.21875,0 c 5.08882,9e-5 9.66254,0.81992 13.71875,2.5 4.05609,1.68026 7.51213,4.10653 10.34375,7.25 2.83146,3.14363 5.0258,6.9947 6.5625,11.53125 1.53654,4.53669 2.28117,9.63384 2.28125,15.34375 -8e-5,5.71293 -0.74471,10.83842 -2.28125,15.375 -1.5367,4.53666 -3.73104,8.38772 -6.5625,11.53125 -2.83162,3.14357 -6.28766,5.56985 -10.34375,7.25 -4.05621,1.68019 -8.62993,2.50001 -13.71875,2.5 l -20.21875,0 0,-73.28125 z"
         transform="translate(90.136719,785.41676)"
         id="path2991"
         style="font-size:144px;font-style:normal;font-variant:normal;font-weight:bold;font-stretch:normal;text-align:center;letter-spacing:-20px;text-anchor:middle;fill:#000000;fill-opacity:1;fill-rule:evenodd;stroke:none;font-family:Lato;-inkscape-font-specification:Lato Bold" />
      <path
         d="m 272.51807,845.30457 c -1.1e-4,7.63188 -1.27233,14.69974 -3.81665,21.20361 -2.54454,6.50393 -6.12095,12.13259 -10.72925,16.88599 -4.60849,4.75342 -10.15219,8.46167 -16.63111,11.12475 -6.47907,2.66309 -13.6546,3.99463 -21.52661,3.99463 -7.87212,0 -15.0601,-1.33154 -21.56396,-3.99463 -6.50394,-2.66308 -12.07254,-6.37133 -16.70581,-11.12475 -4.63332,-4.7534 -8.22145,-10.38206 -10.76441,-16.88599 -2.54297,-6.50387 -3.81445,-13.57173 -3.81445,-21.20361 0,-7.63178 1.27148,-14.69964 3.81445,-21.20362 2.54296,-6.50382 6.13109,-12.13175 10.76441,-16.88379 4.63327,-4.75186 10.20187,-8.45937 16.70581,-11.12256 6.50386,-2.66298 13.69184,-3.99452 21.56396,-3.99462 7.87201,1e-4 15.04754,1.34409 21.52661,4.03198 6.47892,2.68808 12.02262,6.3956 16.63111,11.12256 4.6083,4.72713 8.18471,10.34261 10.72925,16.84643 2.54432,6.50398 3.81654,13.57184 3.81665,21.20362 z m -19.87207,0 c -9e-5,-5.70991 -0.75669,-10.83319 -2.26978,-15.36988 -1.51327,-4.53655 -3.68563,-8.38908 -6.51709,-11.55761 -2.83162,-3.16838 -6.27547,-5.59196 -10.33154,-7.27076 -4.05622,-1.67862 -8.62726,-2.51797 -13.71314,-2.51806 -5.08892,9e-5 -9.67314,0.83944 -13.75268,2.51806 -4.07963,1.6788 -7.54765,4.10238 -10.40406,7.27076 -2.85647,3.16853 -5.053,7.02106 -6.58959,11.55761 -1.53665,4.53669 -2.30496,9.65997 -2.30494,15.36988 -2e-5,5.71293 0.76829,10.83768 2.30494,15.37426 1.53659,4.53666 3.73312,8.37674 6.58959,11.52027 2.85641,3.14357 6.32443,5.55544 10.40406,7.23559 4.07954,1.68019 8.66376,2.52028 13.75268,2.52027 5.08588,10e-6 9.65692,-0.84008 13.71314,-2.52027 4.05607,-1.68015 7.49992,-4.09202 10.33154,-7.23559 2.83146,-3.14353 5.00382,-6.98361 6.51709,-11.52027 1.51309,-4.53658 2.26969,-9.66133 2.26978,-15.37426 z"
         id="path2989"
         style="font-size:144px;font-style:normal;font-variant:normal;font-weight:bold;font-stretch:normal;text-align:center;letter-spacing:-20px;text-anchor:middle;fill:#000000;fill-opacity:1;fill-rule:evenodd;stroke:none;font-family:Lato;-inkscape-font-specification:Lato Bold" />
      <path
         d="m 516.92629,845.44819 c -1.1e-4,4.58867 -0.4734,8.97528 -1.41988,13.15982 -0.9467,4.18463 -2.30596,8.09722 -4.07781,11.73778 -1.77206,3.64062 -3.93507,6.98541 -6.48901,10.03437 -2.55413,3.04899 -5.46171,5.73218 -8.72271,8.04957 l 26.02528,28.37153 -15.74417,0 c -2.26843,-2e-5 -4.31311,-0.30737 -6.13404,-0.92205 -1.8211,-0.61472 -3.48772,-1.75033 -4.99985,-3.40684 l -15.03424,-16.59695 c -2.4127,0.66376 -4.88377,1.16086 -7.41323,1.4913 -2.52957,0.33043 -5.16513,0.49565 -7.90671,0.49565 -7.75453,0 -14.83514,-1.31165 -21.24185,-3.93496 -6.40679,-2.6233 -11.89221,-6.27615 -16.45627,-10.95857 -4.5641,-4.6824 -8.09865,-10.22698 -10.60362,-16.63376 -2.50498,-6.40672 -3.75747,-13.36901 -3.75747,-20.88689 0,-7.51777 1.25249,-14.48006 3.75747,-20.88689 2.50497,-6.40667 6.03952,-11.95053 10.60362,-16.63159 4.56406,-4.68088 10.04948,-8.33301 16.45627,-10.95641 6.40671,-2.62321 13.48732,-3.93486 21.24185,-3.93496 7.75442,1e-4 14.82277,1.32401 21.20506,3.97176 6.38214,2.64793 11.84303,6.30006 16.38269,10.95641 4.53946,4.65652 8.06245,10.18812 10.56898,16.59479 2.50631,6.40683 3.75953,13.36912 3.75964,20.88689 z m -19.57523,0 c -9e-5,-5.62461 -0.74539,-10.67137 -2.23588,-15.14029 -1.49066,-4.46878 -3.63058,-8.26377 -6.41975,-11.38496 -2.78932,-3.12106 -6.18172,-5.50844 -10.17721,-7.16216 -3.99563,-1.65354 -8.49838,-2.48036 -13.5083,-2.48045 -5.01291,9e-5 -9.52864,0.82691 -13.54725,2.48045 -4.01869,1.65372 -7.43491,4.0411 -10.24865,7.16216 -2.8138,3.12119 -4.97752,6.91618 -6.49115,11.38496 -1.5137,4.46892 -2.27054,9.51568 -2.27052,15.14029 -2e-5,5.6276 0.75682,10.6758 2.27052,15.14461 1.51363,4.4689 3.67735,8.25162 6.49115,11.34819 2.81374,3.09662 6.22996,5.47246 10.24865,7.12751 4.01861,1.6551 8.53434,2.48264 13.54725,2.48263 5.00992,1e-5 9.51267,-0.82753 13.5083,-2.48263 3.99549,-1.65505 7.38789,-4.03089 10.17721,-7.12751 2.78917,-3.09657 4.92909,-6.87929 6.41975,-11.34819 1.49049,-4.46881 2.23579,-9.51701 2.23588,-15.14461 z"
         id="path3026"
         style="font-size:144px;font-style:normal;font-variant:normal;font-weight:bold;font-stretch:normal;text-align:center;letter-spacing:-20px;text-anchor:middle;fill:#000000;fill-opacity:1;fill-rule:evenodd;stroke:none;font-family:Lato;-inkscape-font-specification:Lato Bold" />
    </g>
  </g>
</svg>
